<svg xmlns="http://www.w3.org/2000/svg" version="1.1" xmlns:xlink="http://www.w3.org/1999/xlink" width="1000" height="1000"><style>
    #light-icon {
      display: inline;
    }
    #dark-icon {
      display: none;
    }

    @media (prefers-color-scheme: dark) {
      #light-icon {
        display: none;
      }
      #dark-icon {
        display: inline;
      }
    }
  </style><g id="light-icon"><svg xmlns="http://www.w3.org/2000/svg" version="1.1" xmlns:xlink="http://www.w3.org/1999/xlink" width="1000" height="1000"><g><g transform="matrix(31.25,0,0,31.25,0,0)"><svg xmlns="http://www.w3.org/2000/svg" version="1.1" xmlns:xlink="http://www.w3.org/1999/xlink" width="32" height="32"><svg width="32" height="32" viewBox="0 0 32 32" fill="none" xmlns="http://www.w3.org/2000/svg">
<rect y="1" width="31" height="30" rx="10" fill="white"></rect>
<path fill-rule="evenodd" clip-rule="evenodd" d="M15.5 3C18.8312 3.00007 21.5316 5.65768 21.5317 8.93603C21.5317 11.4164 19.9858 13.5411 17.7905 14.4288V22.5596C17.807 22.9382 17.8788 23.2462 17.9964 23.4921L18.05 23.5942L18.0534 23.6009C18.2186 23.908 18.3957 24.1404 18.5807 24.307C18.7747 24.4624 18.9644 24.5803 19.1489 24.6644C19.3531 24.7299 19.5544 24.7619 19.754 24.762C19.955 24.762 20.1579 24.7295 20.3635 24.6632C20.5673 24.5785 20.7658 24.46 20.9589 24.3053C21.1458 24.1367 21.3224 23.9124 21.4862 23.6265C21.6361 23.3463 21.718 22.9965 21.718 22.5668V12.2776C21.718 11.6572 21.9476 11.1327 22.4057 10.7269C22.8703 10.3135 23.4897 10.0669 24.117 10.0669C24.5159 10.0669 26.0167 10.0829 27.2798 10.0928C28.2294 10.1004 28.9999 10.8595 29 11.7959V12.1876C28.9999 13.1242 28.2284 13.883 27.2768 13.8831H26.6142C26.4562 13.8832 26.3279 14.0092 26.3271 14.1647L26.2906 22.8011C26.2904 23.8928 26.0436 24.8497 25.5374 25.6593C25.0682 26.4411 24.5127 27.0803 23.869 27.5707L23.8682 27.5716C23.2538 28.0351 22.596 28.3894 21.8957 28.6329C21.2128 28.8773 20.5085 29 19.7838 29C19.0781 29 18.3745 28.8769 17.6744 28.6338L17.6719 28.6329C16.9903 28.389 16.3332 28.0251 15.7012 27.5439C15.6457 27.507 15.5921 27.468 15.5404 27.4272C15.4922 27.4659 15.4467 27.5039 15.4022 27.5389L15.4005 27.5402L15.3988 27.5418C14.8445 27.9641 14.2638 28.296 13.6573 28.5358L13.3957 28.6329C12.7129 28.8773 12.0084 29 11.2838 29C10.578 29 9.87414 28.877 9.174 28.6338L9.17145 28.6329C8.49137 28.3896 7.835 28.0356 7.20284 27.5741L7.20029 27.5724L7.19816 27.5707C6.55325 27.0793 5.99701 26.4386 5.52725 25.6547C5.0446 24.8493 4.78821 23.8979 4.74729 22.8108L4.74687 22.8053V14.1656C4.74682 14.0095 4.61832 13.8831 4.4598 13.8831H3.72407C2.77222 13.8831 2.00013 13.1235 2 12.1868V11.7599C1.99997 10.8224 2.77254 10.0751 3.7245 10.0891C4.16208 10.0955 4.63096 10.1004 5.03435 10.1004H7.08972L7.10163 10.1016C7.74028 10.154 8.2684 10.3539 8.65049 10.7299C9.03255 11.1059 9.23599 11.6256 9.28925 12.2541L9.2901 12.2663V22.5596C9.30892 22.9921 9.40014 23.3458 9.55292 23.6298C9.71672 23.9152 9.89379 24.1388 10.0807 24.307C10.2746 24.4623 10.464 24.5804 10.6484 24.6644C10.8527 24.7299 11.0544 24.762 11.254 24.762C11.4549 24.7619 11.6575 24.7294 11.863 24.6632C12.0668 24.5785 12.2654 24.46 12.4584 24.3053C12.6447 24.1373 12.8212 23.9143 12.9845 23.6298C13.1355 23.3491 13.2175 22.9982 13.2175 22.5668V14.4318C11.018 13.546 9.46787 11.4194 9.46787 8.93603C9.46795 5.65768 12.1688 3.00007 15.5 3ZM15.5 6.95763C14.3897 6.95771 13.4894 7.84332 13.4893 8.93603C13.4893 10.0288 14.3896 10.9148 15.5 10.9148C16.6104 10.9148 17.5103 10.0288 17.5103 8.93603C17.5102 7.84332 16.6103 6.95771 15.5 6.95763Z" fill="#154273"></path>
</svg></svg></g></g></svg></g><g id="dark-icon"><svg xmlns="http://www.w3.org/2000/svg" version="1.1" xmlns:xlink="http://www.w3.org/1999/xlink" width="1000" height="1000"><g clip-path="url(#SvgjsClipPath1042)"><rect width="1000" height="1000" fill="#ffffff"></rect><g transform="matrix(21.875,0,0,21.875,150,150)"><svg xmlns="http://www.w3.org/2000/svg" version="1.1" xmlns:xlink="http://www.w3.org/1999/xlink" width="32" height="32"><svg width="32" height="32" viewBox="0 0 32 32" fill="none" xmlns="http://www.w3.org/2000/svg">
<rect y="1" width="31" height="30" rx="10" fill="white"></rect>
<path fill-rule="evenodd" clip-rule="evenodd" d="M15.5 3C18.8312 3.00007 21.5316 5.65768 21.5317 8.93603C21.5317 11.4164 19.9858 13.5411 17.7905 14.4288V22.5596C17.807 22.9382 17.8788 23.2462 17.9964 23.4921L18.05 23.5942L18.0534 23.6009C18.2186 23.908 18.3957 24.1404 18.5807 24.307C18.7747 24.4624 18.9644 24.5803 19.1489 24.6644C19.3531 24.7299 19.5544 24.7619 19.754 24.762C19.955 24.762 20.1579 24.7295 20.3635 24.6632C20.5673 24.5785 20.7658 24.46 20.9589 24.3053C21.1458 24.1367 21.3224 23.9124 21.4862 23.6265C21.6361 23.3463 21.718 22.9965 21.718 22.5668V12.2776C21.718 11.6572 21.9476 11.1327 22.4057 10.7269C22.8703 10.3135 23.4897 10.0669 24.117 10.0669C24.5159 10.0669 26.0167 10.0829 27.2798 10.0928C28.2294 10.1004 28.9999 10.8595 29 11.7959V12.1876C28.9999 13.1242 28.2284 13.883 27.2768 13.8831H26.6142C26.4562 13.8832 26.3279 14.0092 26.3271 14.1647L26.2906 22.8011C26.2904 23.8928 26.0436 24.8497 25.5374 25.6593C25.0682 26.4411 24.5127 27.0803 23.869 27.5707L23.8682 27.5716C23.2538 28.0351 22.596 28.3894 21.8957 28.6329C21.2128 28.8773 20.5085 29 19.7838 29C19.0781 29 18.3745 28.8769 17.6744 28.6338L17.6719 28.6329C16.9903 28.389 16.3332 28.0251 15.7012 27.5439C15.6457 27.507 15.5921 27.468 15.5404 27.4272C15.4922 27.4659 15.4467 27.5039 15.4022 27.5389L15.4005 27.5402L15.3988 27.5418C14.8445 27.9641 14.2638 28.296 13.6573 28.5358L13.3957 28.6329C12.7129 28.8773 12.0084 29 11.2838 29C10.578 29 9.87414 28.877 9.174 28.6338L9.17145 28.6329C8.49137 28.3896 7.835 28.0356 7.20284 27.5741L7.20029 27.5724L7.19816 27.5707C6.55325 27.0793 5.99701 26.4386 5.52725 25.6547C5.0446 24.8493 4.78821 23.8979 4.74729 22.8108L4.74687 22.8053V14.1656C4.74682 14.0095 4.61832 13.8831 4.4598 13.8831H3.72407C2.77222 13.8831 2.00013 13.1235 2 12.1868V11.7599C1.99997 10.8224 2.77254 10.0751 3.7245 10.0891C4.16208 10.0955 4.63096 10.1004 5.03435 10.1004H7.08972L7.10163 10.1016C7.74028 10.154 8.2684 10.3539 8.65049 10.7299C9.03255 11.1059 9.23599 11.6256 9.28925 12.2541L9.2901 12.2663V22.5596C9.30892 22.9921 9.40014 23.3458 9.55292 23.6298C9.71672 23.9152 9.89379 24.1388 10.0807 24.307C10.2746 24.4623 10.464 24.5804 10.6484 24.6644C10.8527 24.7299 11.0544 24.762 11.254 24.762C11.4549 24.7619 11.6575 24.7294 11.863 24.6632C12.0668 24.5785 12.2654 24.46 12.4584 24.3053C12.6447 24.1373 12.8212 23.9143 12.9845 23.6298C13.1355 23.3491 13.2175 22.9982 13.2175 22.5668V14.4318C11.018 13.546 9.46787 11.4194 9.46787 8.93603C9.46795 5.65768 12.1688 3.00007 15.5 3ZM15.5 6.95763C14.3897 6.95771 13.4894 7.84332 13.4893 8.93603C13.4893 10.0288 14.3896 10.9148 15.5 10.9148C16.6104 10.9148 17.5103 10.0288 17.5103 8.93603C17.5102 7.84332 16.6103 6.95771 15.5 6.95763Z" fill="#154273"></path>
</svg></svg></g></g><defs><clipPath id="SvgjsClipPath1042"><rect width="1000" height="1000" x="0" y="0" rx="350" ry="350"></rect></clipPath></defs></svg></g></svg>
