<svg width="30" height="30" viewBox="0 0 30 30" fill="none" xmlns="http://www.w3.org/2000/svg">
<path fill-rule="evenodd" clip-rule="evenodd" d="M15 0C18.7013 8.32527e-05 21.7018 2.96434 21.7019 6.62096C21.7019 9.38756 19.9842 11.7574 17.545 12.7475V21.8165C17.5634 22.2388 17.6432 22.5823 17.7738 22.8566L17.8333 22.9705L17.8371 22.978C18.0206 23.3204 18.2175 23.5796 18.423 23.7655C18.6386 23.9388 18.8493 24.0704 19.0543 24.1642C19.2812 24.2372 19.5049 24.2729 19.7267 24.2729C19.95 24.2729 20.1754 24.2367 20.4039 24.1628C20.6303 24.0684 20.8509 23.9362 21.0654 23.7636C21.2731 23.5756 21.4693 23.3254 21.6513 23.0065C21.8179 22.694 21.9089 22.3038 21.9089 21.8245V10.3481C21.9089 9.65607 22.164 9.07106 22.6729 8.61849C23.1893 8.15735 23.8775 7.88235 24.5744 7.88231C25.0176 7.88231 26.6852 7.90018 28.0886 7.91126C29.1438 7.91964 29.9999 8.76637 30 9.81076V10.2477C29.9999 11.2924 29.1427 12.1387 28.0853 12.1388H27.3491C27.1735 12.1389 27.031 12.2795 27.0301 12.453L26.9895 22.0859C26.9893 23.3035 26.7151 24.3708 26.1527 25.2738C25.6313 26.1459 25.0141 26.8588 24.2989 27.4058L24.298 27.4067C23.6153 27.9238 22.8844 28.319 22.1064 28.5906C21.3476 28.8632 20.565 29 19.7598 29C18.9756 29 18.1939 28.8628 17.416 28.5915L17.4132 28.5906C16.6559 28.3185 15.9258 27.9126 15.2235 27.3759C15.1619 27.3348 15.1024 27.2912 15.0449 27.2457C14.9913 27.2889 14.9407 27.3313 14.8913 27.3703L14.8894 27.3717L14.8875 27.3736C14.2717 27.8446 13.6265 28.2147 12.9525 28.4823L12.6619 28.5906C11.9032 28.8632 11.1204 29 10.3153 29C9.53111 29 8.74905 28.8628 7.97111 28.5915L7.96828 28.5906C7.21263 28.3191 6.48334 27.9244 5.78093 27.4095L5.7781 27.4077L5.77574 27.4058C5.05916 26.8577 4.44113 26.143 3.91917 25.2687C3.38289 24.3703 3.09801 23.3092 3.05255 22.0966L3.05207 22.0905V12.4539C3.05202 12.2798 2.90925 12.1389 2.73311 12.1388H1.91564C0.858027 12.1388 0.000148436 11.2916 9.80494e-10 10.2468V9.77061C-3.34975e-05 8.72504 0.858374 7.89141 1.91611 7.90705C2.40231 7.91425 2.92329 7.91966 3.3715 7.91966H5.65524L5.66847 7.92106C6.37809 7.97949 6.96489 8.20244 7.38943 8.62176C7.81394 9.04115 8.03999 9.62087 8.09917 10.3219L8.10011 10.3355V21.8165C8.12102 22.2989 8.22237 22.6933 8.39214 23.0102C8.57413 23.3285 8.77088 23.5779 8.97855 23.7655C9.19404 23.9388 9.40445 24.0704 9.60937 24.1642C9.8363 24.2372 10.0604 24.2729 10.2823 24.2729C10.5054 24.2729 10.7306 24.2367 10.9589 24.1628C11.1854 24.0684 11.406 23.9361 11.6205 23.7636C11.8274 23.5762 12.0235 23.3275 12.205 23.0102C12.3728 22.6971 12.4639 22.3057 12.4639 21.8245V12.7508C10.02 11.7628 8.29763 9.39087 8.29763 6.62096C8.29772 2.96434 11.2987 8.27852e-05 15 0ZM15 4.41428C13.7663 4.41436 12.766 5.40217 12.7659 6.62096C12.7659 7.83982 13.7663 8.82801 15 8.8281C16.2337 8.82801 17.2336 7.83982 17.2336 6.62096C17.2336 5.40217 16.2337 4.41436 15 4.41428Z" fill="#154273"/>
</svg>
