<svg width="32" height="32" viewBox="0 0 32 32" fill="none" xmlns="http://www.w3.org/2000/svg">
<rect width="32" height="32" fill="white"/>
<path d="M11.1918 30C10.4513 30 9.71081 29.8702 8.97029 29.6106C8.25155 29.351 7.5546 28.9725 6.87942 28.4749C6.20424 27.9558 5.61618 27.2743 5.11524 26.4307C4.6143 25.587 4.34205 24.5811 4.29849 23.413V11.6991C4.29849 11.0934 4.51629 10.5959 4.95189 10.2065C5.40927 9.79546 5.94288 9.58995 6.55272 9.58995C7.85951 9.69812 8.56736 10.4012 8.67626 11.6991V23.1534C8.69804 23.6726 8.80694 24.116 9.00296 24.4838C9.19898 24.8299 9.41678 25.1111 9.65636 25.3274C9.89594 25.5221 10.1355 25.6735 10.3751 25.7817C10.6365 25.8682 10.8978 25.9115 11.1592 25.9115C11.4205 25.9115 11.6819 25.8682 11.9433 25.7817C12.2046 25.6735 12.4551 25.5221 12.6947 25.3274C12.9342 25.1111 13.152 24.8299 13.3481 24.4838C13.5441 24.116 13.6421 23.6726 13.6421 23.1534V11.6991C13.6421 11.0934 13.8599 10.5959 14.2955 10.2065C14.7529 9.79546 15.2865 9.58995 15.8963 9.58995C17.2031 9.69812 17.9218 10.4012 18.0525 11.6991V23.1534C18.0743 23.6726 18.1832 24.1052 18.3792 24.4513C18.5752 24.8191 18.793 25.1111 19.0326 25.3274C19.2722 25.5221 19.5118 25.6735 19.7514 25.7817C20.0127 25.8682 20.2741 25.9115 20.5354 25.9115C20.7968 25.9115 21.0582 25.8682 21.3195 25.7817C21.5809 25.6735 21.8313 25.5221 22.0709 25.3274C22.3105 25.1111 22.5283 24.8299 22.7243 24.4838C22.9203 24.116 23.0184 23.6726 23.0184 23.1534V11.6991C23.0184 11.0934 23.2361 10.5959 23.6717 10.2065C24.1291 9.79546 24.6627 9.58995 25.2726 9.58995C26.5794 9.69812 27.2981 10.4012 27.4288 11.6991V23.413C27.4288 24.5811 27.1674 25.587 26.6447 26.4307C26.1438 27.2743 25.5557 27.9558 24.8805 28.4749C24.2271 28.9725 23.5302 29.351 22.7897 29.6106C22.0709 29.8702 21.3304 30 20.5681 30C19.8276 30 19.0871 29.8702 18.3466 29.6106C17.6278 29.351 16.9309 28.9617 16.2557 28.4425C16.125 28.3559 16.0052 28.2586 15.8963 28.1504C15.7656 28.2586 15.6458 28.3559 15.5369 28.4425C14.8618 28.9617 14.1539 29.351 13.4134 29.6106C12.6947 29.8702 11.9541 30 11.1918 30Z" fill="#154273"/>
<path d="M22.9253 9.11558C22.9253 13.0454 19.7178 16.2312 15.7611 16.2312C11.8045 16.2312 8.59699 13.0454 8.59699 9.11558C8.59699 5.18575 11.8045 2 15.7611 2C19.7178 2 22.9253 5.18575 22.9253 9.11558Z" fill="#154273"/>
<path d="M21.4925 9.11558C21.4925 5.97172 18.9265 3.42312 15.7611 3.42312C12.5958 3.42312 10.0298 5.97172 10.0298 9.11558C10.0298 12.2594 12.5958 14.808 15.7611 14.808V16.2312C11.8045 16.2312 8.59699 13.0454 8.59699 9.11558C8.59699 5.18575 11.8045 2 15.7611 2C19.7178 2 22.9253 5.18575 22.9253 9.11558C22.9253 13.0454 19.7178 16.2312 15.7611 16.2312V14.808C18.9265 14.808 21.4925 12.2594 21.4925 9.11558Z" fill="#154273"/>
<path d="M18.1492 9.11558C18.1492 10.4255 17.08 11.4874 15.7611 11.4874C14.4423 11.4874 13.3731 10.4255 13.3731 9.11558C13.3731 7.80564 14.4423 6.74372 15.7611 6.74372C17.08 6.74372 18.1492 7.80564 18.1492 9.11558Z" fill="#F5F5F5"/>
<path d="M16.7164 9.11558C16.7164 8.59161 16.2887 8.16684 15.7611 8.16684C15.2336 8.16684 14.8059 8.59161 14.8059 9.11558C14.8059 9.63956 15.2336 10.0643 15.7611 10.0643V11.4874C14.4423 11.4874 13.3731 10.4255 13.3731 9.11558C13.3731 7.80564 14.4423 6.74372 15.7611 6.74372C17.08 6.74372 18.1492 7.80564 18.1492 9.11558C18.1492 10.4255 17.08 11.4874 15.7611 11.4874V10.0643C16.2887 10.0643 16.7164 9.63956 16.7164 9.11558Z" fill="#F5F5F5"/>
<path d="M23.403 11.006C23.403 10.224 24.0413 9.58995 24.8288 9.58995H30.5743C31.3617 9.58995 32 10.224 32 11.006V12.4432C32 13.2253 31.3617 13.8593 30.5743 13.8593H23.403V11.006Z" fill="#154273"/>
<path d="M8.59699 11.006C8.59699 10.224 7.95866 9.58995 7.17125 9.58995H1.42574C0.638324 9.58995 0 10.224 0 11.006V12.4432C0 13.2253 0.638325 13.8593 1.42574 13.8593H8.59699V11.006Z" fill="#154273"/>
</svg>
